<?xml version="1.0" encoding="utf-8"?>
<!-- Generator: Adobe Illustrator 15.1.0, SVG Export Plug-In  -->
<!DOCTYPE svg PUBLIC "-//W3C//DTD SVG 1.1//EN" "http://www.w3.org/Graphics/SVG/1.1/DTD/svg11.dtd" [
	<!ENTITY ns_flows "http://ns.adobe.com/Flows/1.0/">
]>
<svg version="1.1"
	 xmlns="http://www.w3.org/2000/svg" xmlns:xlink="http://www.w3.org/1999/xlink" xmlns:a="http://ns.adobe.com/AdobeSVGViewerExtensions/3.0/"
	 x="0px" y="0px" width="801px" height="800px" viewBox="-0.93 0 801 800" enable-background="new -0.93 0 801 800"
	 xml:space="preserve">
<defs>
</defs>
<path fill="#8CC7C2" d="M400,0C179.085,0,0,179.085,0,400c0,37.871,5.267,74.512,15.101,109.231h122.355v23.334H22.523
	C77.22,688.32,225.555,800,400,800c220.915,0,400-179.085,400-400C800,179.085,620.915,0,400,0z M345.918,532.565
	c-18.179,0-21.283-15.072-21.283-29.704v-7.093l-34.583,22.61c-13.744,8.867-25.272,14.187-36.799,14.187h-31.479
	c-11.971,0-25.271-3.545-39.459-15.515c-19.066-16.406-18.622-34.583-19.508-57.64l-4.434-133.898
	c-0.444-15.518,1.772-31.922,21.281-31.922c18.179,0,20.396,15.518,20.838,29.263l4.434,130.792
	c0.444,9.756,0.887,21.283,4.434,27.49c3.548,6.208,14.632,8.867,24.829,8.867h14.188c4.878,0,9.312-1.331,13.301-3.99l62.517-39.46
	v-123.7c0-14.632,3.104-29.263,21.281-29.263c18.179,0,21.283,14.631,21.283,29.263v178.234
	C366.756,510.84,368.529,532.565,345.918,532.565z M571.585,532.565h-65.621c-22.168,0-37.24-0.886-53.203-13.301
	c-7.982-6.205-19.506-14.187-19.506-24.828c0-11.969,10.195-21.279,22.168-21.279c6.647,0,11.527,2.214,16.403,7.533
	c7.536,8.424,20.837,9.313,34.138,9.313h57.64c15.075,0,35.472,1.332,35.472-23.499c0-10.195-12.415-16.849-22.171-21.282
	l-100.198-45.666c-23.503-10.641-37.246-24.385-37.246-51.874c0-33.696,26.602-54.092,58.525-54.092h72.711
	c23.5,0,33.256,1.33,49.216,14.631c7.979,6.652,16.846,11.971,16.846,23.942s-10.195,21.283-21.726,21.283
	c-7.979,0-12.854-3.104-18.177-8.867c-7.093-7.538-14.629-8.425-26.159-8.425h-64.732c-8.867,0-23.939-1.774-23.939,11.971
	c0,7.093,5.319,9.754,11.527,12.414l106.409,48.329c27.487,12.415,41.677,29.707,41.677,60.3
	C641.638,512.171,612.376,532.565,571.585,532.565z"/>
</svg>
