<svg{% if include.class %} class="{{ include.class }}"{% endif %}{% if include.width %} width="{{ include.width }}"{% endif %}{% if include.height %} height="{{ include.height }}"{% endif %} viewbox="-0.9 0 801 800" xmlns="http://www.w3.org/2000/svg" focusable="false"><title>UnderStrap</title><path fill="#8CC7C2" d="M400 0A400 400 0 0 0 15.1 509.2h122.4v23.4h-115A400.1 400.1 0 0 0 800 400C800 179 621 0 400 0zm-54 532.6c-18.3 0-21.4-15.1-21.4-29.7v-7.1l-34.5 22.6c-13.8 8.8-25.3 14.2-36.8 14.2h-31.5c-12 0-25.3-3.6-39.5-15.5-19-16.5-18.6-34.6-19.5-57.7l-4.4-133.9c-.5-15.5 1.7-32 21.3-32 18.1 0 20.4 15.6 20.8 29.4l4.4 130.7c.5 9.8 1 21.3 4.5 27.5 3.5 6.2 14.6 8.9 24.8 8.9h14.2c4.9 0 9.3-1.3 13.3-4l62.5-39.4V322.9c0-14.7 3.1-29.3 21.3-29.3s21.3 14.6 21.3 29.3V501c0 9.7 1.7 31.5-20.9 31.5zm225.6 0H506c-22.2 0-37.3-1-53.2-13.3-8-6.2-19.5-14.2-19.5-24.9 0-12 10.2-21.2 22.1-21.2 6.7 0 11.6 2.2 16.4 7.5 7.6 8.4 20.9 9.3 34.2 9.3h57.6c15 0 35.5 1.3 35.5-23.5 0-10.2-12.4-16.8-22.2-21.3l-100.2-45.6c-23.5-10.7-37.2-24.4-37.2-52 0-33.6 26.6-54 58.5-54h72.7c23.5 0 33.3 1.3 49.2 14.6 8 6.7 16.9 12 16.9 24s-10.2 21.2-21.8 21.2c-8 0-12.8-3-18.1-8.8-7.1-7.6-14.7-8.4-26.2-8.4H506c-8.9 0-24-1.8-24 12 0 7 5.3 9.7 11.6 12.3L600 409c27.4 12.4 41.6 29.7 41.6 60.3 0 43-29.2 63.4-70 63.4z"/>
</svg>
